<svg xmlns="http://www.w3.org/2000/svg" width="32" height="32" fill="none"><style>@media (prefers-color-scheme:dark){.a{fill:#fff}.b{fill:#000}}</style><g clip-path="url(#clip0_2317_130)"><path fill="#000" d="M29.5 4.375v8.265c0 12.6-10.662 16.782-12.797 17.492-.456.155-.95.155-1.406 0C13.159 29.422 2.5 25.24 2.5 12.639V4.375a2.25 2.25 0 0 1 2.25-2.25h22.5a2.25 2.25 0 0 1 2.25 2.25" class="a"/><path fill="#fff" d="M22.082 9.418a1.64 1.64 0 0 0-2.32 0l-.723.723 2.32 2.32.723-.723a1.64 1.64 0 0 0 0-2.32m-1.386 3.706-2.32-2.32-7.594 7.594c-.386.386-.67.861-.825 1.384l-.5 1.678a.47.47 0 0 0 .583.583l1.678-.5c.523-.156.999-.44 1.384-.825z" class="b"/></g><defs><clipPath id="clip0_2317_130"><path fill="#fff" d="M0 0h32v32H0z" class="b"/></clipPath></defs></svg>