<svg xmlns="http://www.w3.org/2000/svg" width="512" height="512" fill="none"><style>@media (prefers-color-scheme:dark){.a{fill:#fff}.b{fill:#000}}</style><path fill="#2563EB" fill-rule="evenodd" d="M244.992 46.293a16 16 0 0 1 22.016 0A239.12 239.12 0 0 0 435.051 112a16 16 0 0 1 15.402 10.987A271.8 271.8 0 0 1 464 208c0 126.763-86.699 233.237-204.011 263.424a16 16 0 0 1-7.978 0C134.699 441.237 48 334.763 48 208c0-29.653 4.757-58.24 13.547-85.013a16 16 0 0 1 15.402-11.008L80 112c63.915 0 121.984-24.96 164.992-65.707" class="a" clip-rule="evenodd"/><path fill="#fff" d="M337.092 175.908a21.877 21.877 0 0 0-30.934 0l-9.641 9.642 30.933 30.933 9.642-9.641a21.88 21.88 0 0 0 0-30.934m-18.483 49.417-30.934-30.933-101.25 101.25a43.75 43.75 0 0 0-11 18.45l-6.666 22.375a6.25 6.25 0 0 0 7.775 7.775l22.375-6.667a43.75 43.75 0 0 0 18.45-11z" class="b"/></svg>